<svg width="170" height="46" viewBox="0 0 170 46" fill="none" xmlns="http://www.w3.org/2000/svg">
<path d="M3 11.6761C11.0057 11.6761 23.5 11.6761 23.5 11.6761L32.5 33.4696L41 11.6761L49 33.4696C49 33.4696 54.79 20.187 58.5 11.6761M66 11.6761V33.4696M75 33.4696C75 24.9588 75 11.6761 75 11.6761L90.5 32.5423V11.6761" stroke="white" stroke-width="5" stroke-linecap="round" stroke-linejoin="round"/>
<ellipse cx="33" cy="41.8162" rx="3.5" ry="3.24584" fill="white"/>
<ellipse cx="50" cy="41.8162" rx="3.5" ry="3.24584" fill="white"/>
<ellipse cx="66" cy="3.79345" rx="3.5" ry="3.24584" fill="white"/>
<path d="M103.022 18.8318L102.187 19.6945C101.494 19.0204 100.817 18.6833 100.155 18.6833C99.7347 18.6833 99.3729 18.8225 99.0698 19.1008C98.7729 19.3791 98.6245 19.7038 98.6245 20.0749C98.6245 20.4027 98.7482 20.7151 98.9956 21.0119C99.243 21.315 99.7625 21.6706 100.554 22.0788C101.519 22.5798 102.175 23.0622 102.521 23.5261C102.861 23.9961 103.031 24.525 103.031 25.1125C103.031 25.9413 102.741 26.6433 102.159 27.2185C101.578 27.7937 100.851 28.0813 99.979 28.0813C99.3976 28.0813 98.841 27.9545 98.3091 27.7009C97.7834 27.4473 97.3473 27.0979 97.001 26.6526L97.8174 25.7248C98.4792 26.4732 99.1812 26.8474 99.9233 26.8474C100.443 26.8474 100.885 26.6804 101.25 26.3464C101.615 26.0124 101.797 25.6197 101.797 25.1682C101.797 24.7971 101.677 24.4662 101.436 24.1755C101.194 23.891 100.65 23.5323 99.8027 23.0993C98.8936 22.6293 98.2751 22.1654 97.9473 21.7077C97.6195 21.2501 97.4556 20.7274 97.4556 20.1399C97.4556 19.3729 97.7153 18.7359 98.2349 18.2287C98.7606 17.7216 99.4224 17.468 100.22 17.468C101.148 17.468 102.082 17.9226 103.022 18.8318ZM106.464 13.9797H107.772V17.7278H109.832V18.841H107.772V27.8215H106.464V18.841H104.692V17.7278H106.464V13.9797ZM116.548 17.468C118.101 17.468 119.387 18.0308 120.408 19.1565C121.335 20.1832 121.799 21.3985 121.799 22.8025C121.799 24.2126 121.308 25.4465 120.324 26.5041C119.347 27.5556 118.088 28.0813 116.548 28.0813C115.002 28.0813 113.737 27.5556 112.754 26.5041C111.777 25.4465 111.288 24.2126 111.288 22.8025C111.288 21.4047 111.752 20.1924 112.68 19.1657C113.7 18.0339 114.99 17.468 116.548 17.468ZM116.548 18.739C115.472 18.739 114.548 19.1379 113.774 19.9358C113.001 20.7336 112.615 21.6985 112.615 22.8303C112.615 23.5601 112.791 24.2404 113.144 24.8713C113.496 25.5022 113.972 25.9908 114.572 26.3371C115.172 26.6773 115.831 26.8474 116.548 26.8474C117.266 26.8474 117.924 26.6773 118.524 26.3371C119.124 25.9908 119.601 25.5022 119.953 24.8713C120.306 24.2404 120.482 23.5601 120.482 22.8303C120.482 21.6985 120.092 20.7336 119.313 19.9358C118.54 19.1379 117.618 18.739 116.548 18.739ZM123.729 17.7278H125.056V19.2029C125.451 18.6215 125.869 18.1885 126.308 17.904C126.747 17.6133 127.205 17.468 127.681 17.468C128.04 17.468 128.423 17.5824 128.832 17.8112L128.154 18.906C127.882 18.7885 127.653 18.7297 127.468 18.7297C127.035 18.7297 126.617 18.9091 126.215 19.2678C125.813 19.6203 125.507 20.1708 125.297 20.9192C125.136 21.4944 125.056 22.6571 125.056 24.4074V27.8215H123.729V17.7278ZM138.434 24.4724L139.528 25.0476C139.17 25.7527 138.755 26.3217 138.285 26.7546C137.815 27.1876 137.286 27.5184 136.699 27.7473C136.111 27.9699 135.446 28.0813 134.704 28.0813C133.059 28.0813 131.772 27.5432 130.845 26.467C129.917 25.3847 129.453 24.1631 129.453 22.8025C129.453 21.5222 129.846 20.3811 130.631 19.3791C131.627 18.105 132.96 17.468 134.63 17.468C136.349 17.468 137.722 18.1205 138.749 19.4255C139.479 20.3471 139.85 21.4974 139.862 22.8767H130.789C130.814 24.0518 131.188 25.0167 131.912 25.7712C132.635 26.5196 133.529 26.8938 134.593 26.8938C135.106 26.8938 135.604 26.8041 136.086 26.6247C136.575 26.4454 136.989 26.2072 137.33 25.9104C137.67 25.6135 138.038 25.1342 138.434 24.4724ZM138.434 21.7541C138.26 21.0614 138.007 20.5079 137.673 20.0935C137.345 19.6791 136.909 19.3451 136.365 19.0915C135.82 18.8379 135.248 18.7112 134.648 18.7112C133.659 18.7112 132.808 19.0297 132.097 19.6667C131.578 20.1306 131.185 20.8264 130.919 21.7541H138.434ZM143.722 25.7805C144.037 25.7805 144.306 25.8918 144.529 26.1145C144.751 26.3371 144.863 26.6093 144.863 26.9309C144.863 27.2463 144.751 27.5184 144.529 27.7473C144.306 27.9699 144.037 28.0813 143.722 28.0813C143.406 28.0813 143.137 27.9699 142.915 27.7473C142.692 27.5184 142.581 27.2463 142.581 26.9309C142.581 26.6093 142.692 26.3371 142.915 26.1145C143.137 25.8918 143.406 25.7805 143.722 25.7805ZM147.581 17.7278H148.871V19.5832C149.384 18.8781 149.975 18.3493 150.643 17.9968C151.311 17.6443 152.056 17.468 152.878 17.468C154.313 17.468 155.541 17.9844 156.562 19.0173C157.582 20.0502 158.092 21.2933 158.092 22.7468C158.092 24.2312 157.585 25.4929 156.571 26.532C155.563 27.5648 154.344 28.0813 152.916 28.0813C152.111 28.0813 151.372 27.9143 150.698 27.5803C150.024 27.2463 149.415 26.7484 148.871 26.0866V31.5139H147.581V17.7278ZM152.776 18.7204C151.651 18.7204 150.701 19.1132 149.928 19.8987C149.161 20.6841 148.778 21.6613 148.778 22.8303C148.778 23.5972 148.948 24.2868 149.288 24.8991C149.634 25.5114 150.126 25.997 150.763 26.3557C151.406 26.7144 152.084 26.8938 152.795 26.8938C153.494 26.8938 154.149 26.7144 154.762 26.3557C155.38 25.9908 155.872 25.4836 156.237 24.8342C156.602 24.1848 156.784 23.5044 156.784 22.7932C156.784 22.0757 156.602 21.3954 156.237 20.7522C155.878 20.1089 155.393 19.6111 154.78 19.2585C154.168 18.8998 153.5 18.7204 152.776 18.7204ZM160.523 13.8313H161.831V21.7912L166.498 17.7278H168.409L162.87 22.5427L168.733 27.8215H166.896L161.831 23.2849V27.8215H160.523V13.8313Z" fill="white"/>
</svg>
