<svg width="40" height="40" viewBox="0 0 40 40" fill="none" xmlns="http://www.w3.org/2000/svg">
<path d="M19.8918 0.179993C9.12394 0.179993 0.391846 8.91209 0.391846 19.68C0.391846 30.4479 9.12394 39.18 19.8918 39.18C30.6598 39.18 39.3918 30.4479 39.3918 19.68C39.3918 8.91209 30.6598 0.179993 19.8918 0.179993ZM31.0216 24.2964C30.9674 25.4884 30.7779 26.3022 30.5012 27.0145C29.9195 28.5186 28.7305 29.7076 27.2264 30.2893C26.5143 30.566 25.7002 30.7553 24.5086 30.8097C23.3145 30.8642 22.9331 30.8773 19.8921 30.8773C16.8509 30.8773 16.4698 30.8642 15.2754 30.8097C14.0837 30.7553 13.2697 30.566 12.5576 30.2893C11.8102 30.0081 11.1336 29.5675 10.5742 28.9977C10.0047 28.4386 9.56401 27.7617 9.28283 27.0145C9.00611 26.3025 8.81657 25.4884 8.76242 24.2967C8.70737 23.1024 8.69458 22.7209 8.69458 19.68C8.69458 16.6391 8.70737 16.2576 8.76212 15.0636C8.81628 13.8716 9.00552 13.0578 9.28223 12.3455C9.56342 11.5983 10.0044 10.9214 10.5742 10.3623C11.1333 9.79253 11.8102 9.35186 12.5573 9.07068C13.2697 8.79396 14.0834 8.60472 15.2754 8.55027C16.4695 8.49582 16.8509 8.48273 19.8918 8.48273C22.9328 8.48273 23.3142 8.49582 24.5083 8.55057C25.7002 8.60472 26.514 8.79396 27.2264 9.07038C27.9735 9.35156 28.6504 9.79253 29.2098 10.3623C29.7793 10.9217 30.2203 11.5983 30.5012 12.3455C30.7782 13.0578 30.9674 13.8716 31.0219 15.0636C31.0763 16.2576 31.0891 16.6391 31.0891 19.68C31.0891 22.7209 31.0763 23.1024 31.0216 24.2964Z" fill="#3B5998"/>
</svg>
