<svg width="23" height="22" viewBox="0 0 23 22" fill="none" xmlns="http://www.w3.org/2000/svg">
<path d="M22.5428 13.2487V21.2882H17.8818V13.7875C17.8818 11.9042 17.2088 10.6181 15.5212 10.6181C14.2333 10.6181 13.4682 11.4839 13.1304 12.3224C13.0077 12.622 12.976 13.0381 12.976 13.4584V21.2878H8.31463C8.31463 21.2878 8.3772 8.58422 8.31463 7.26923H12.9764V9.25579C12.967 9.27144 12.9538 9.28673 12.9454 9.30168H12.9764V9.25579C13.5958 8.30266 14.7005 6.94004 17.1772 6.94004C20.2438 6.94004 22.5428 8.94364 22.5428 13.2487ZM3.43841 0.511765C1.84395 0.511765 0.800781 1.55841 0.800781 2.93354C0.800781 4.27947 1.8137 5.35635 3.37724 5.35635H3.40748C5.03323 5.35635 6.04407 4.27947 6.04407 2.93354C6.01313 1.55841 5.03323 0.511765 3.43841 0.511765ZM1.07782 21.2882H5.73748V7.26923H1.07782V21.2882Z" fill="#F1F2F2"/>
</svg>
