<svg width="20" height="25" viewBox="0 0 20 25" fill="none" xmlns="http://www.w3.org/2000/svg">
<path d="M11.4657 18.2924C9.99152 18.1783 9.3721 17.4473 8.21598 16.7455C7.58057 20.0794 6.80403 23.2752 4.50396 24.9447C3.79312 19.9059 5.54607 16.1212 6.36015 12.104C4.97253 9.76817 6.52699 5.06653 9.45378 6.22508C13.056 7.64955 6.33512 14.9106 10.847 15.8174C15.5573 16.7643 17.4802 7.64433 14.559 4.67792C10.3384 0.39514 2.27376 4.58059 3.26547 10.7116C3.50705 12.2104 5.05595 12.6654 3.88419 14.7336C1.183 14.1354 0.377259 12.005 0.480844 9.16473C0.648039 4.51559 4.6583 1.26031 8.68072 0.809825C13.7678 0.240457 18.5425 2.67783 19.2015 7.46288C19.943 12.8635 16.9049 18.7123 11.4657 18.2924Z" fill="#F1F2F2"/>
</svg>
